<svg width="23" height="15" viewBox="0 0 23 15" fill="none" xmlns="http://www.w3.org/2000/svg">
<path d="M1.47266 14.127C1.94141 14.127 2.20508 13.9121 2.39062 13.3262L3.51367 9.99609H8.50391L9.62695 13.3262C9.8125 13.9023 10.0762 14.127 10.5449 14.127C11.043 14.127 11.3652 13.8438 11.3652 13.3848C11.3652 13.1992 11.3164 12.9941 11.2383 12.7793L7.22461 1.55859C6.98047 0.875 6.63867 0.5625 6.01367 0.5625C5.38867 0.5625 5.04688 0.875 4.80273 1.55859L0.789062 12.7793C0.710938 13.0137 0.662109 13.1992 0.662109 13.3945C0.662109 13.8438 0.984375 14.127 1.47266 14.127ZM3.97266 8.61914L5.97461 2.68164H6.04297L8.04492 8.61914H3.97266ZM12.7324 8.39453C12.7324 12.1348 14.6367 14.2832 17.9473 14.2832C19.5488 14.2832 20.8281 13.7949 21.7461 12.877C22.4102 12.2129 22.8496 11.3438 22.8496 10.748C22.8496 10.2891 22.5762 9.98633 22.0879 9.98633C21.7266 9.98633 21.5215 10.1719 21.248 10.6602C20.5156 12.0859 19.4414 12.75 18.0156 12.75C15.7207 12.75 14.4414 11.1875 14.4414 8.38477V6.28516C14.4414 3.51172 15.7207 1.92969 18.0156 1.92969C19.4219 1.92969 20.4277 2.60352 21.209 4.05859C21.4824 4.57617 21.7266 4.73242 22.1074 4.73242C22.5566 4.73242 22.8496 4.44922 22.8496 3.9707C22.8496 3.4043 22.4297 2.54492 21.7754 1.86133C20.8379 0.904297 19.5684 0.386719 17.9473 0.386719C14.6465 0.386719 12.7324 2.57422 12.7324 6.27539V8.39453Z" fill="black"/>
</svg>
