<svg xmlns="http://www.w3.org/2000/svg" xmlns:xlink="http://www.w3.org/1999/xlink" version="1.1" width="256" height="256" viewBox="0 0 256 256" xml:space="preserve">
<desc>Created with Fabric.js 1.7.22</desc>
<defs>
</defs>
<g transform="translate(128 128) scale(0.72 0.72)" style="">
	<g style="stroke: none; stroke-width: 0; stroke-dasharray: none; stroke-linecap: butt; stroke-linejoin: miter; stroke-miterlimit: 10; fill: none; fill-rule: nonzero; opacity: 1;" transform="translate(-175.05 -175.05000000000004) scale(3.89 3.89)" >
	<path d="M 24.347 90 c -0.525 0 -1.041 -0.207 -1.424 -0.596 L 0.576 66.748 c -0.768 -0.778 -0.768 -2.03 0 -2.809 l 22.346 -22.655 c 0.569 -0.578 1.431 -0.755 2.183 -0.446 c 0.751 0.308 1.241 1.039 1.241 1.851 v 20.623 C 59.419 62.257 86 35.158 86 2 c 0 -1.104 0.896 -2 2 -2 s 2 0.896 2 2 c 0 36.031 -29.452 65.344 -65.654 65.344 c -1.104 0 -2 -0.896 -2 -2 V 47.564 L 4.809 65.344 l 17.537 17.78 v -7.316 c 0 -1.104 0.896 -2 2 -2 s 2 0.896 2 2 V 88 c 0 0.812 -0.49 1.542 -1.241 1.851 C 24.859 89.951 24.602 90 24.347 90 z" style="stroke: none; stroke-width: 1; stroke-dasharray: none; stroke-linecap: butt; stroke-linejoin: miter; stroke-miterlimit: 10; fill: rgb(0,0,0); fill-rule: nonzero; opacity: 1;" transform=" matrix(1 0 0 1 0 0) " stroke-linecap="round" />
</g>
</g>
</svg>