<svg width="16" height="15" viewBox="0 0 16 15" fill="none" xmlns="http://www.w3.org/2000/svg">
<path d="M7.99023 3.35547C8.78125 3.35547 9.41602 2.7207 9.41602 1.93945C9.41602 1.14844 8.78125 0.513672 7.99023 0.513672C7.20898 0.513672 6.57422 1.14844 6.57422 1.93945C6.57422 2.7207 7.20898 3.35547 7.99023 3.35547ZM1.23242 8.24805H14.7578C15.2363 8.24805 15.6562 7.83789 15.6562 7.33984C15.6562 6.85156 15.2363 6.44141 14.7578 6.44141H1.23242C0.753906 6.44141 0.333984 6.85156 0.333984 7.33984C0.333984 7.83789 0.753906 8.24805 1.23242 8.24805ZM7.99023 14.2344C8.78125 14.2344 9.41602 13.5996 9.41602 12.8184C9.41602 12.0371 8.78125 11.4023 7.99023 11.4023C7.20898 11.4023 6.57422 12.0371 6.57422 12.8184C6.57422 13.5996 7.20898 14.2344 7.99023 14.2344Z" fill="black"/>
</svg>
