<svg width="18" height="19" viewBox="0 0 18 19" fill="none" xmlns="http://www.w3.org/2000/svg">
<path d="M3.11133 18.0312C3.47266 18.2461 4 18.1973 4.30273 17.7676L15.084 1.81055C15.416 1.33203 15.2207 0.824219 14.8496 0.609375C14.5078 0.414062 14.0195 0.462891 13.6973 0.941406L2.91602 16.8496C2.57422 17.3477 2.74023 17.8164 3.11133 18.0312ZM3.64844 9.18359C5.67969 9.18359 6.91016 7.54297 6.91016 4.90625C6.91016 2.26953 5.66992 0.658203 3.64844 0.658203C1.62695 0.658203 0.376953 2.2793 0.376953 4.91602C0.376953 7.55273 1.61719 9.18359 3.64844 9.18359ZM3.64844 7.81641C2.59375 7.81641 1.98828 6.76172 1.98828 4.91602C1.98828 3.08008 2.60352 2.02539 3.64844 2.02539C4.68359 2.02539 5.30859 3.07031 5.30859 4.91602C5.30859 6.76172 4.69336 7.81641 3.64844 7.81641ZM14.3516 18.0117C16.3828 18.0117 17.6133 16.3711 17.6133 13.7344C17.6133 11.0977 16.373 9.48633 14.3516 9.48633C12.3301 9.48633 11.0801 11.1074 11.0801 13.7344C11.0801 16.3809 12.3203 18.0117 14.3516 18.0117ZM14.3516 16.6445C13.2969 16.6445 12.6914 15.5898 12.6914 13.7344C12.6914 11.9082 13.3066 10.8438 14.3516 10.8438C15.3867 10.8438 16.0117 11.8984 16.0117 13.7344C16.0117 15.5898 15.3965 16.6445 14.3516 16.6445Z" fill="black"/>
</svg>
