<svg width="18" height="19" viewBox="0 0 18 19" fill="none" xmlns="http://www.w3.org/2000/svg">
<path d="M9.67383 9.71094L14.9961 1.83984C15.123 1.6543 15.1719 1.48828 15.1719 1.29297C15.1719 0.902344 14.8301 0.609375 14.4395 0.609375C14.0977 0.609375 13.9121 0.716797 13.6387 1.10742L8.36523 8.94922L3.02344 16.8105C2.89648 16.9961 2.83789 17.1523 2.83789 17.3672C2.83789 17.7871 3.17969 18.0605 3.60938 18.0605C3.93164 18.0605 4.11719 17.9336 4.37109 17.5723L9.67383 9.71094ZM0.220703 5.24805C0.220703 5.62891 0.533203 5.93164 0.914062 5.93164H2.75V7.77734C2.75 8.16797 3.07227 8.46094 3.44336 8.46094C3.83398 8.46094 4.12695 8.1582 4.12695 7.77734V5.93164H5.98242C6.36328 5.93164 6.66602 5.62891 6.66602 5.24805C6.66602 4.86719 6.36328 4.55469 5.98242 4.55469H4.12695V2.70898C4.12695 2.32812 3.82422 2.01562 3.44336 2.01562C3.0625 2.01562 2.75 2.32812 2.75 2.70898V4.55469H0.914062C0.533203 4.55469 0.220703 4.86719 0.220703 5.24805ZM11.3145 14.0566C11.3145 14.4375 11.627 14.7402 12.0078 14.7402H17.0762C17.457 14.7402 17.7598 14.4375 17.7598 14.0566C17.7598 13.6758 17.457 13.373 17.0762 13.373H12.0078C11.627 13.373 11.3145 13.6758 11.3145 14.0566Z" fill="black"/>
</svg>
